PathFileType	4	(X/Y/Z)	C:\Users\dbl\Desktop\LZH\BX\Trimmed_bx_n_10_501.trc
DataRate	CameraRate	NumFrames	NumMarkers	Units	OrigDataRate	OrigDataStartFrame	OrigNumFrames
50.00	50.00	      7	43	mm	50.00	1093	      1457
Frame#	Time	Top.Head			R.Acromium			L.Acromium			Sternum			R.ASIS			L.ASIS			V.Sacral			R.Thigh.Upper			R.Thigh.Front			R.Thigh.Rear			R.Knee.Lat			R.Knee.Med			R.Shank.Upper			R.Shank.Front			R.Shank.Rear			R.Ankle.Lat			R.Midfoot.Lat			R.Toe.Lat			R.Toe.Tip			R.Toe.Med			R.Ankle.Med			R.Midfoot.Sup			R.Heel			L.Thigh.Upper			L.Thigh.Front			L.Thigh.Rear			L.Knee.Lat			L.Knee.Med			L.Shank.Upper			L.Shank.Front			L.Shank.Rear			L.Ankle.Lat			L.Midfoot.Lat			L.Toe.Lat			L.Toe.Tip			L.Toe.Med			L.Ankle.Med			L.Midfoot.Sup			L.Heel			origin1 front left			origin2 front right			origin 3 back right			origin 4 back leftt			
		X1	Y1	Z1	X2	Y2	Z2	X3	Y3	Z3	X4	Y4	Z4	X5	Y5	Z5	X6	Y6	Z6	X7	Y7	Z7	X8	Y8	Z8	X9	Y9	Z9	X10	Y10	Z10	X11	Y11	Z11	X12	Y12	Z12	X13	Y13	Z13	X14	Y14	Z14	X15	Y15	Z15	X16	Y16	Z16	X17	Y17	Z17	X18	Y18	Z18	X19	Y19	Z19	X20	Y20	Z20	X21	Y21	Z21	X22	Y22	Z22	X23	Y23	Z23	X24	Y24	Z24	X25	Y25	Z25	X26	Y26	Z26	X27	Y27	Z27	X28	Y28	Z28	X29	Y29	Z29	X30	Y30	Z30	X31	Y31	Z31	X32	Y32	Z32	X33	Y33	Z33	X34	Y34	Z34	X35	Y35	Z35	X36	Y36	Z36	X37	Y37	Z37	X38	Y38	Z38	X39	Y39	Z39	X40	Y40	Z40	X41	Y41	Z41	X42	Y42	Z42	X43	Y43	Z43	

1093	21.840	-104.05164	222.41458	1345.17969	-328.29645	62.03880	1172.80029	-329.69720	395.50711	1166.18213	-488.78345	222.15193	1042.22266	-727.17841	135.28511	974.60791	-698.31873	358.13800	972.59387	-883.46851	262.70663	1085.84985	-799.66724	87.87487	814.07727	-705.46204	149.38103	803.39117	-792.66180	103.03416	700.30084	-772.22833	125.50191	588.99359	-742.64856	238.98651	551.54449	-784.03308	124.57032	521.38416	-704.81946	174.87495	526.15350	-778.17810	116.04818	469.64539	-692.45764	146.24866	209.36008	-608.88641	88.86274	164.80824	-561.51947	68.32469	161.93437	-482.74939	113.14456	157.44035	-529.40491	163.10927	164.84428	-646.42505	222.75945	226.88867	-593.51733	198.91489	176.15646	-720.76196	214.22005	168.59142	-777.60327	452.04086	842.21356	-693.30835	388.60709	810.52655	-776.30017	442.76938	726.09631	-757.85754	414.58823	592.00659	-746.74158	308.63141	561.46313	-762.54962	417.68167	546.66345	-704.32220	355.82144	534.56726	-799.59564	421.98352	471.87845	-684.73315	406.97855	211.35086	-580.63959	451.14258	163.59016	-542.38861	461.43240	156.45978	-482.50830	407.27863	165.74738	-526.12054	370.39258	176.98767	-651.87561	315.60873	213.36482	-595.65820	332.06384	174.41869	-732.03467	333.41772	161.68857	-444.03262	448.72458	147.04681	-450.58923	75.01328	143.66353	-806.40326	82.79667	142.06451	-799.63495	456.61636	145.30539	
1094	21.860	-104.18591	222.35468	1343.61194	-327.73483	62.32166	1171.67285	-329.02066	395.40942	1163.98315	-489.59833	221.76428	1039.95850	-727.67261	135.32524	974.38116	-698.83972	358.12839	972.27405	-883.83777	262.67816	1085.80286	-800.12097	87.85447	814.03308	-705.88934	149.46399	803.33276	-792.98016	102.93108	700.22601	-772.42896	125.45189	589.03247	-742.77759	238.89400	551.63306	-784.23511	124.62802	521.25879	-705.00037	174.87949	526.18304	-778.25677	116.08763	469.62567	-692.42615	146.26099	209.35602	-608.88818	88.87457	164.80368	-561.51746	68.31561	161.94669	-482.74152	113.14840	157.44987	-529.40314	163.12903	164.82758	-646.42889	222.75685	226.90611	-593.51593	198.86197	175.91180	-720.72906	214.22147	168.60847	-778.08704	452.04587	842.09778	-693.78174	388.63589	810.48645	-776.77679	442.79547	726.01331	-758.14661	414.68539	591.96533	-747.20264	308.44504	561.36597	-762.79669	417.66574	546.53821	-704.59338	355.79019	534.50098	-799.87598	422.11771	471.78409	-684.75903	407.02679	211.38432	-580.58923	451.11594	163.56682	-542.34448	461.42639	156.41646	-482.47949	407.22800	165.72839	-526.12024	370.36987	176.97987	-651.85962	315.62732	213.41872	-595.66254	332.06967	174.41170	-732.04138	333.45117	161.70280	-444.01935	448.74146	147.01868	-450.58929	75.00918	143.66296	-806.52460	82.85654	141.96347	-799.64404	456.59665	145.30476	
1095	21.880	-104.46466	222.37477	1342.22754	-327.19067	62.64852	1170.62891	-328.44061	395.35580	1161.88794	-490.41745	221.40204	1037.86633	-728.19336	135.37355	974.16675	-699.38855	358.13193	971.97003	-884.24200	262.64023	1085.75098	-800.58282	87.86082	813.98230	-706.33728	149.52827	803.25812	-793.31586	102.83937	700.13177	-772.65149	125.40435	589.05206	-742.90509	238.77623	551.71576	-784.44489	124.65299	521.17474	-705.22528	174.89589	526.18988	-778.35352	116.07011	469.61746	-692.38965	146.25653	209.37070	-608.88550	88.88821	164.78964	-561.51263	68.30933	161.95575	-482.72836	113.14539	157.45590	-529.41803	163.15401	164.79416	-646.42786	222.75830	226.93051	-593.54437	198.76892	175.66289	-720.70605	214.21530	168.62367	-778.60779	452.06949	842.01648	-694.28961	388.68283	810.42621	-777.28809	442.77887	725.91595	-758.48572	414.77298	591.92474	-747.65851	308.23004	561.26978	-763.11243	417.62839	546.41315	-704.93408	355.74966	534.38892	-800.17767	422.23270	471.69748	-684.79120	407.07306	211.42413	-580.54150	451.07071	163.53583	-542.29950	461.42743	156.36946	-482.45834	407.18329	165.71391	-526.12061	370.34781	176.97681	-651.85944	315.65363	213.47260	-595.67310	332.07895	174.40962	-732.04993	333.48700	161.70316	-444.01163	448.76093	146.98895	-450.58804	75.00378	143.66154	-806.63239	82.90163	141.87653	-799.65045	456.58038	145.29892	
1096	21.900	-104.88068	222.48294	1341.00757	-326.69800	63.01066	1169.65063	-327.96167	395.34357	1159.95190	-491.24005	221.06531	1035.94629	-728.75226	135.41161	973.96869	-699.97412	358.13962	971.68005	-884.68774	262.59412	1085.70081	-801.05524	87.88470	813.92383	-706.80774	149.55936	803.17365	-793.67517	102.77020	700.01331	-772.90131	125.36143	589.04083	-743.03723	238.63165	551.79047	-784.66296	124.64021	521.13989	-705.49792	174.93617	526.16803	-778.47424	115.99043	469.61493	-692.35254	146.22652	209.41058	-608.87286	88.90495	164.76505	-561.50360	68.31149	161.95659	-482.71323	113.14066	157.45673	-529.44312	163.18335	164.74957	-646.42200	222.76501	226.95987	-593.61151	198.63829	175.43079	-720.70184	214.19598	168.64697	-779.17578	452.08716	841.95837	-694.83044	388.73764	810.34314	-777.82733	442.72269	725.81189	-758.87402	414.82877	591.87451	-748.11121	307.98822	561.17419	-763.50177	417.57031	546.29254	-705.33893	355.69470	534.23633	-800.50806	422.32999	471.62927	-684.82904	407.11176	211.46768	-580.49768	451.01651	163.50687	-542.25507	461.43503	156.32420	-482.44400	407.14484	165.69728	-526.11926	370.32281	176.97739	-651.87317	315.68192	213.53406	-595.68787	332.08636	174.41534	-732.05811	333.52792	161.69849	-444.01169	448.77930	146.96422	-450.58670	74.99876	143.65787	-806.70685	82.92319	141.81569	-799.65076	456.56998	145.29030	
1097	21.920	-105.42133	222.68176	1339.93823	-326.29187	63.40495	1168.73438	-327.58395	395.36499	1158.25159	-492.06540	220.75412	1034.19824	-729.35187	135.42584	973.79352	-700.60376	358.14178	971.40637	-885.18365	262.54279	1085.65173	-801.54700	87.90606	813.86133	-707.30420	149.55008	803.08960	-794.06299	102.72633	699.87152	-773.18115	125.32385	588.99799	-743.18024	238.45886	551.85498	-784.88916	124.59560	521.14581	-705.81396	175.00279	526.12006	-778.62415	115.85590	469.61569	-692.31769	146.16658	209.47777	-608.84473	88.92741	164.73013	-561.48920	68.32357	161.94675	-482.69876	113.13951	157.45117	-529.46722	163.21582	164.70116	-646.41364	222.77661	226.99188	-593.71887	198.47774	175.23210	-720.72125	214.15868	168.68953	-779.79675	452.07904	841.90656	-695.40283	388.78992	810.24323	-778.39172	442.63672	725.70715	-759.30603	414.84012	591.80774	-748.56268	307.72137	561.07898	-763.95148	417.49493	546.17950	-705.78656	355.62323	534.06085	-800.87421	422.40836	471.58249	-684.86896	407.13779	211.51469	-580.45953	450.96426	163.48996	-542.21387	461.44724	156.28502	-482.43350	407.11386	165.67178	-526.11456	370.29163	176.98003	-651.89520	315.71121	213.60347	-595.70135	332.08902	174.42906	-732.06372	333.57382	161.69971	-444.01883	448.79282	146.94949	-450.58667	74.99560	143.65155	-806.73779	82.91888	141.78638	-799.64386	456.56717	145.28181	
1098	21.940	-106.07263	222.96735	1339.01416	-326.00525	63.83313	1167.89429	-327.30804	395.40735	1156.86853	-492.89267	220.46860	1032.62207	-729.98566	135.41034	973.64795	-701.28436	358.12979	971.15253	-885.74170	262.48788	1085.59473	-802.06970	87.90251	813.79877	-707.83032	149.50256	803.01691	-794.48071	102.70143	699.71307	-773.49042	125.29159	588.93073	-743.34021	238.25685	551.90704	-785.12299	124.53219	521.17181	-706.16095	175.08621	526.05621	-778.80560	115.68384	469.61993	-692.28357	146.07974	209.56920	-608.79639	88.95914	164.68620	-561.46832	68.34175	161.92734	-482.68515	113.14492	157.43799	-529.47870	163.25066	164.65437	-646.40527	222.79181	227.02448	-593.86127	198.29828	175.07646	-720.76123	214.10133	168.75893	-780.47131	452.03690	841.84637	-696.00696	388.83118	810.13892	-778.98303	442.53375	725.60358	-759.77417	414.80270	591.72119	-749.01489	307.43127	560.98383	-764.43604	417.40634	546.07550	-706.24646	355.53748	533.88928	-801.27826	422.46140	471.54938	-684.90558	407.14847	211.56773	-580.42822	450.92108	163.49168	-542.17957	461.46149	156.25372	-482.42285	407.09247	165.63280	-526.10583	370.25266	176.98312	-651.91827	315.74319	213.67305	-595.70691	332.08624	174.44736	-732.06555	333.62128	161.71651	-444.03024	448.79913	146.94649	-450.58841	74.99502	143.64348	-806.72784	82.89410	141.78624	-799.63141	456.57288	145.27534	
1099	21.960	-106.82581	223.32901	1338.24304	-325.86755	64.29791	1167.16370	-327.13916	395.45471	1155.87061	-493.72113	220.20879	1031.21753	-730.64288	135.36749	973.53656	-702.02423	358.09857	970.92072	-886.37762	262.42734	1085.51465	-802.63226	87.85921	813.73578	-708.38867	149.42712	802.96252	-794.92755	102.68255	699.54742	-773.82648	125.26397	588.85046	-743.52301	238.02519	551.94476	-785.36420	124.46461	521.19147	-706.52185	175.16705	525.99158	-779.01611	115.49689	469.62692	-692.24396	145.97664	209.67726	-608.72571	89.00317	164.63544	-561.44073	68.35831	161.90237	-482.67020	113.15652	157.41597	-529.46979	163.28783	164.61067	-646.39801	222.80925	227.05614	-594.02838	198.11293	174.96669	-720.81110	214.02612	168.85593	-781.19617	451.96402	841.76929	-696.64478	388.85611	810.04443	-779.60590	442.42557	725.49750	-760.27142	414.71680	591.61389	-749.46979	307.11972	560.88831	-764.92871	417.30768	545.97949	-706.68878	355.44400	533.74963	-801.71448	422.47888	471.51321	-684.93433	407.14532	211.63123	-580.40326	450.88812	163.51268	-542.15533	461.47580	156.22914	-482.40851	407.08282	165.57959	-526.09369	370.20703	176.98558	-651.93640	315.77820	213.73062	-595.69940	332.07877	174.46446	-732.06311	333.66440	161.75392	-444.04233	448.79822	146.95328	-450.59116	74.99697	143.63539	-806.69049	82.85999	141.80690	-799.61761	456.58664	145.27138	
